<svg width="16" height="16" viewBox="0 0 16 16" fill="none" xmlns="http://www.w3.org/2000/svg">
<path d="M15 4L13 3V13L15 12V4Z" fill="#6E6E6E"/>
<path d="M3 3L1 4V12L3 13V3Z" fill="#6E6E6E"/>
<path d="M13 13H3L4 15H12L13 13Z" fill="#6E6E6E"/>
<path d="M12 1H4L3 3H13L12 1Z" fill="#6E6E6E"/>
<path fill-rule="evenodd" clip-rule="evenodd" d="M12 4H4V12H12V4ZM8.3299 9.36364L8.38672 5.18182H7.61399L7.67081 9.36364H8.3299ZM7.63956 10.8949C7.73994 10.9953 7.8602 11.0455 8.00036 11.0455C8.09505 11.0455 8.18028 11.0227 8.25604 10.9773C8.33369 10.9299 8.39524 10.8674 8.4407 10.7898C8.48804 10.7121 8.51172 10.6269 8.51172 10.5341C8.51172 10.3939 8.46153 10.2737 8.36115 10.1733C8.26077 10.0729 8.14051 10.0227 8.00036 10.0227C7.8602 10.0227 7.73994 10.0729 7.63956 10.1733C7.53918 10.2737 7.48899 10.3939 7.48899 10.5341C7.48899 10.6742 7.53918 10.7945 7.63956 10.8949Z" fill="#6E6E6E"/>
</svg>
