<svg width="16" height="16" viewBox="0 0 16 16" fill="none" xmlns="http://www.w3.org/2000/svg">
<path d="M15 4L13 3V13L15 12V4Z" fill="#6E6E6E"/>
<path d="M3 3L1 4V12L3 13V3Z" fill="#6E6E6E"/>
<path d="M13 13H3L4 15H12L13 13Z" fill="#6E6E6E"/>
<path d="M12 1H4L3 3H13L12 1Z" fill="#6E6E6E"/>
<path fill-rule="evenodd" clip-rule="evenodd" d="M12 4H4V12H12V4ZM7.68111 5.69318V5.18182H7.04474V5.70455C7.04474 5.91477 7.00024 6.11269 6.91122 6.2983C6.8241 6.48201 6.72088 6.65909 6.60156 6.82955L6.9652 7.125C7.11671 7.00379 7.2455 6.86174 7.35156 6.69886C7.45952 6.53409 7.54096 6.36458 7.59588 6.19034C7.6527 6.0142 7.68111 5.84848 7.68111 5.69318ZM9.13565 5.69318V5.18182H8.49929V5.70455C8.49929 5.91477 8.45478 6.11269 8.36577 6.2983C8.27865 6.48201 8.17543 6.65909 8.05611 6.82955L8.41974 7.125C8.57126 7.00379 8.70005 6.86174 8.80611 6.69886C8.91406 6.53409 8.9955 6.36458 9.05043 6.19034C9.10724 6.0142 9.13565 5.84848 9.13565 5.69318Z" fill="#6E6E6E"/>
</svg>
