<svg width="16" height="16" viewBox="0 0 16 16" fill="none" xmlns="http://www.w3.org/2000/svg">
<path d="M15 4L13 3V13L15 12V4Z" fill="#6E6E6E"/>
<path d="M3 3L1 4V12L3 13V3Z" fill="#6E6E6E"/>
<path d="M13 13H3L4 15H12L13 13Z" fill="#6E6E6E"/>
<path d="M12 1H4L3 3H13L12 1Z" fill="#6E6E6E"/>
<path fill-rule="evenodd" clip-rule="evenodd" d="M12 4H4V12H12V4ZM8.52539 9.38636L8.26065 11H8.82884L9.09357 9.38636H9.95384L10.0447 8.81818H9.18679L9.42543 7.36364H10.2947L10.3857 6.79545H9.51864L9.78338 5.18182H9.2152L8.95046 6.79545H7.47319L7.73793 5.18182H7.16974L6.90501 6.79545H6.04474L5.95384 7.36364H6.81179L6.57315 8.81818H5.70384L5.61293 9.38636H6.47994L6.2152 11H6.78338L7.04812 9.38636H8.52539ZM8.61861 8.81818L8.85724 7.36364H7.37997L7.14134 8.81818H8.61861Z" fill="#6E6E6E"/>
</svg>
