<svg width="16" height="16" viewBox="0 0 16 16" fill="none" xmlns="http://www.w3.org/2000/svg">
<path d="M15 4L13 3V13L15 12V4Z" fill="#6E6E6E"/>
<path d="M3 3L1 4V12L3 13V3Z" fill="#6E6E6E"/>
<path d="M13 13H3L4 15H12L13 13Z" fill="#6E6E6E"/>
<path d="M12 1H4L3 3H13L12 1Z" fill="#6E6E6E"/>
<path fill-rule="evenodd" clip-rule="evenodd" d="M12 4H4V12H12V4ZM8.31818 9.60227V9.90909C8.31818 10.1212 8.36174 10.3163 8.44886 10.4943C8.53598 10.6705 8.66383 10.8125 8.83239 10.9205C9.00095 11.0265 9.20833 11.0795 9.45455 11.0795C9.69697 11.0795 9.90152 11.0265 10.0682 10.9205C10.2367 10.8125 10.3636 10.6705 10.4489 10.4943C10.536 10.3163 10.5795 10.1212 10.5795 9.90909V9.60227C10.5795 9.39015 10.5369 9.19602 10.4517 9.01989C10.3665 8.84186 10.2405 8.69981 10.0739 8.59375C9.9072 8.4858 9.70076 8.43182 9.45455 8.43182C9.21212 8.43182 9.00568 8.4858 8.83523 8.59375C8.66667 8.69981 8.53788 8.84186 8.44886 9.01989C8.36174 9.19602 8.31818 9.39015 8.31818 9.60227ZM8.89773 9.90909V9.60227C8.89773 9.42614 8.94034 9.26894 9.02557 9.13068C9.11269 8.99053 9.25568 8.92045 9.45455 8.92045C9.65909 8.92045 9.80114 8.99053 9.88068 9.13068C9.96023 9.26894 10 9.42614 10 9.60227V9.90909C10 10.0852 9.95833 10.2434 9.875 10.3835C9.79356 10.5218 9.65341 10.5909 9.45455 10.5909C9.25 10.5909 9.10606 10.5218 9.02273 10.3835C8.93939 10.2434 8.89773 10.0852 8.89773 9.90909ZM5.42045 6.27273V6.57955C5.42045 6.79167 5.46402 6.98674 5.55114 7.16477C5.63826 7.34091 5.7661 7.48295 5.93466 7.59091C6.10322 7.69697 6.31061 7.75 6.55682 7.75C6.79924 7.75 7.00379 7.69697 7.17045 7.59091C7.33902 7.48295 7.46591 7.34091 7.55114 7.16477C7.63826 6.98674 7.68182 6.79167 7.68182 6.57955V6.27273C7.68182 6.06061 7.6392 5.86648 7.55398 5.69034C7.46875 5.51231 7.3428 5.37027 7.17614 5.2642C7.00947 5.15625 6.80303 5.10227 6.55682 5.10227C6.31439 5.10227 6.10795 5.15625 5.9375 5.2642C5.76894 5.37027 5.64015 5.51231 5.55114 5.69034C5.46402 5.86648 5.42045 6.06061 5.42045 6.27273ZM6 6.57955V6.27273C6 6.09659 6.04261 5.93939 6.12784 5.80114C6.21496 5.66098 6.35795 5.59091 6.55682 5.59091C6.76136 5.59091 6.90341 5.66098 6.98295 5.80114C7.0625 5.93939 7.10227 6.09659 7.10227 6.27273V6.57955C7.10227 6.75568 7.06061 6.91383 6.97727 7.05398C6.89583 7.19223 6.75568 7.26136 6.55682 7.26136C6.35227 7.26136 6.20833 7.19223 6.125 7.05398C6.04167 6.91383 6 6.75568 6 6.57955ZM9.63636 5.18182L5.63636 11H6.28409L10.2841 5.18182H9.63636Z" fill="#6E6E6E"/>
</svg>
