<svg width="16" height="16" viewBox="0 0 16 16" fill="none" xmlns="http://www.w3.org/2000/svg">
<path d="M15 4L13 3V13L15 12V4Z" fill="#6E6E6E"/>
<path d="M3 3L1 4V12L3 13V3Z" fill="#6E6E6E"/>
<path d="M13 13H3L4 15H12L13 13Z" fill="#6E6E6E"/>
<path d="M12 1H4L3 3H13L12 1Z" fill="#6E6E6E"/>
<path fill-rule="evenodd" clip-rule="evenodd" d="M12 4H4V12H12V4ZM6.71413 10.8693C6.99065 11.0095 7.32019 11.0795 7.70277 11.0795C7.98118 11.0795 8.26338 11.0284 8.54936 10.9261C8.81203 10.8305 9.03317 10.69 9.21276 10.5049L9.62322 11H10.43L9.6225 10.0138C9.63295 10.001 9.64361 9.98787 9.65447 9.97443C9.76622 9.83617 9.8666 9.64489 9.95561 9.40057C10.0446 9.15625 10.0891 8.84091 10.0891 8.45455H9.44141C9.44141 8.76705 9.39122 9.0483 9.29084 9.2983C9.26348 9.36774 9.23335 9.43441 9.20043 9.49831L7.93579 7.95383L8.36186 7.63636C8.6005 7.46023 8.78894 7.26989 8.9272 7.06534C9.06546 6.8608 9.13459 6.61932 9.13459 6.34091C9.13459 6.125 9.07777 5.92519 8.96413 5.74148C8.8505 5.55587 8.68857 5.4072 8.47834 5.29545C8.26811 5.18182 8.01716 5.125 7.7255 5.125C7.44141 5.125 7.1933 5.18087 6.98118 5.29261C6.77095 5.40246 6.60713 5.55682 6.4897 5.75568C6.37417 5.95265 6.31641 6.18182 6.31641 6.44318C6.31641 6.67045 6.36565 6.88163 6.46413 7.0767C6.56262 7.27178 6.69519 7.4697 6.86186 7.67045L7.00236 7.83963C6.78981 7.98778 6.59999 8.13594 6.43288 8.28409C6.25107 8.44508 6.10807 8.62027 6.00391 8.80966C5.90163 8.99716 5.8505 9.21212 5.8505 9.45455C5.8505 9.76894 5.92531 10.0483 6.07493 10.2926C6.22455 10.5369 6.43762 10.7292 6.71413 10.8693ZM7.41776 8.33981L7.20277 8.5C6.94141 8.69318 6.76432 8.88068 6.67152 9.0625C6.57872 9.24432 6.53232 9.375 6.53232 9.45455C6.53232 9.63636 6.57966 9.80587 6.67436 9.96307C6.76906 10.1203 6.90258 10.2472 7.07493 10.3438C7.24728 10.4403 7.44898 10.4886 7.68004 10.4886C7.89974 10.4886 8.11375 10.4422 8.32209 10.3494C8.49885 10.2691 8.6613 10.1587 8.80943 10.0184L7.41868 8.34091L7.41776 8.33981ZM7.52566 7.45412L7.90732 7.17045C8.07209 7.0625 8.20372 6.94697 8.3022 6.82386C8.40258 6.70076 8.45277 6.53977 8.45277 6.34091C8.45277 6.19318 8.38743 6.05019 8.25675 5.91193C8.12796 5.77367 7.95845 5.70455 7.74822 5.70455C7.6005 5.70455 7.46982 5.74242 7.35618 5.81818C7.24444 5.89205 7.15637 5.98674 7.09197 6.10227C7.02947 6.21591 6.99822 6.33333 6.99822 6.45455C6.99822 6.59091 7.03516 6.72917 7.10902 6.86932C7.18478 7.00758 7.28042 7.14962 7.39595 7.29545C7.43869 7.34784 7.48192 7.40073 7.52566 7.45412Z" fill="#6E6E6E"/>
</svg>
