<svg width="16" height="16" viewBox="0 0 16 16" fill="none" xmlns="http://www.w3.org/2000/svg">
<path d="M15 4L13 3V13L15 12V4Z" fill="#6E6E6E"/>
<path d="M3 3L1 4V12L3 13V3Z" fill="#6E6E6E"/>
<path d="M13 13H3L4 15H12L13 13Z" fill="#6E6E6E"/>
<path d="M12 1H4L3 3H13L12 1Z" fill="#6E6E6E"/>
<path fill-rule="evenodd" clip-rule="evenodd" d="M12 4H4V12H8.3627C8.07382 11.5444 7.84674 11.0519 7.68146 10.5227C7.49586 9.92045 7.40305 9.26136 7.40305 8.54545C7.40305 7.82955 7.49586 7.1714 7.68146 6.57102C7.86896 5.96875 8.13601 5.41477 8.4826 4.90909H9.07351C8.93715 5.09659 8.8093 5.32765 8.68999 5.60227C8.57256 5.875 8.46934 6.17519 8.38033 6.50284C8.29131 6.8286 8.22124 7.16572 8.1701 7.5142C8.12086 7.86269 8.09624 8.20644 8.09624 8.54545C8.09624 8.99621 8.1398 9.4536 8.22692 9.91761C8.31404 10.3816 8.43146 10.8125 8.57919 11.2102C8.69336 11.5176 8.81771 11.7809 8.95223 12H12V4Z" fill="#6E6E6E"/>
</svg>
