<svg width="16" height="16" viewBox="0 0 16 16" fill="none" xmlns="http://www.w3.org/2000/svg">
<path d="M15 4L13 3V13L15 12V4Z" fill="#6E6E6E"/>
<path d="M3 3L1 4V12L3 13V3Z" fill="#6E6E6E"/>
<path d="M13 13H3L4 15H12L13 13Z" fill="#6E6E6E"/>
<path d="M12 1H4L3 3H13L12 1Z" fill="#6E6E6E"/>
<path fill-rule="evenodd" clip-rule="evenodd" d="M12 4H4V12H7.04675C7.13793 11.8508 7.22451 11.6803 7.30646 11.4886C7.42578 11.2159 7.52995 10.9167 7.61896 10.5909C7.70798 10.2633 7.77711 9.92519 7.82635 9.5767C7.87749 9.22633 7.90305 8.88258 7.90305 8.54545C7.90305 8.0947 7.85949 7.63731 7.77237 7.1733C7.68525 6.70928 7.56783 6.27841 7.4201 5.88068C7.27237 5.48295 7.1076 5.15909 6.92578 4.90909H7.51669C7.86328 5.41477 8.12938 5.96875 8.31499 6.57102C8.50249 7.1714 8.59624 7.82955 8.59624 8.54545C8.59624 9.26136 8.50249 9.92045 8.31499 10.5227C8.15138 11.0519 7.92523 11.5444 7.63655 12H12V4Z" fill="#6E6E6E"/>
</svg>
