<svg width="16" height="16" viewBox="0 0 16 16" fill="none" xmlns="http://www.w3.org/2000/svg">
<path d="M15 4L13 3V13L15 12V4Z" fill="#6E6E6E"/>
<path d="M3 3L1 4V12L3 13V3Z" fill="#6E6E6E"/>
<path d="M13 13H3L4 15H12L13 13Z" fill="#6E6E6E"/>
<path d="M12 1H4L3 3H13L12 1Z" fill="#6E6E6E"/>
<path fill-rule="evenodd" clip-rule="evenodd" d="M12 4H4V12H12V4ZM7.77273 7.20455L7.72727 8.45455H8.27273L8.22727 7.20455L9.28409 7.875L9.55682 7.39773L8.44318 6.81818L9.55682 6.23864L9.28409 5.76136L8.22727 6.43182L8.27273 5.18182H7.72727L7.77273 6.43182L6.71591 5.76136L6.44318 6.23864L7.55682 6.81818L6.44318 7.39773L6.71591 7.875L7.77273 7.20455Z" fill="#6E6E6E"/>
</svg>
