<svg width="16" height="16" viewBox="0 0 16 16" fill="none" xmlns="http://www.w3.org/2000/svg">
<path d="M15 4L13 3V13L15 12V4Z" fill="#6E6E6E"/>
<path d="M3 3L1 4V12L3 13V3Z" fill="#6E6E6E"/>
<path d="M13 13H3L4 15H12L13 13Z" fill="#6E6E6E"/>
<path d="M12 1H4L3 3H13L12 1Z" fill="#6E6E6E"/>
<path fill-rule="evenodd" clip-rule="evenodd" d="M12 4H4V12H7.49765C7.50155 11.9805 7.50553 11.9606 7.50959 11.9403C7.54936 11.7415 7.58913 11.5189 7.62891 11.2727C7.67057 11.0284 7.70466 10.7784 7.73118 10.5227L7.76527 10.2045H8.49254L8.44709 10.5114C8.41489 10.7273 8.36565 10.9583 8.29936 11.2045C8.23497 11.4508 8.16773 11.6828 8.09766 11.9006C8.08664 11.9348 8.07592 11.968 8.06552 12H12V4Z" fill="#6E6E6E"/>
</svg>
