<svg width="16" height="16" viewBox="0 0 16 16" fill="none" xmlns="http://www.w3.org/2000/svg">
<path d="M15 4L13 3V13L15 12V4Z" fill="#6E6E6E"/>
<path d="M3 3L1 4V12L3 13V3Z" fill="#6E6E6E"/>
<path d="M13 13H3L4 15H12L13 13Z" fill="#6E6E6E"/>
<path d="M12 1H4L3 3H13L12 1Z" fill="#6E6E6E"/>
<path fill-rule="evenodd" clip-rule="evenodd" d="M12 4H4V12H12V4ZM7.46129 9.32955V9.36364H8.14311V9.32955C8.1469 9.0947 8.17152 8.89867 8.21697 8.74148C8.26243 8.58428 8.33535 8.44886 8.43572 8.33523C8.5361 8.2197 8.66963 8.10985 8.83629 8.00568C9.00296 7.90341 9.145 7.78598 9.26243 7.65341C9.38175 7.52083 9.47266 7.37027 9.53516 7.2017C9.59955 7.03314 9.63175 6.8447 9.63175 6.63636C9.63175 6.34091 9.56357 6.07765 9.4272 5.84659C9.29273 5.61553 9.10144 5.43371 8.85334 5.30114C8.60713 5.16856 8.31735 5.10227 7.98402 5.10227C7.6772 5.10227 7.39785 5.16288 7.14595 5.28409C6.89595 5.4053 6.69425 5.58049 6.54084 5.80966C6.38932 6.03883 6.30599 6.31439 6.29084 6.63636H7.00675C7.0219 6.41288 7.07777 6.23201 7.17436 6.09375C7.27095 5.95549 7.39122 5.85417 7.53516 5.78977C7.6791 5.72538 7.82872 5.69318 7.98402 5.69318C8.16205 5.69318 8.32398 5.73011 8.46982 5.80398C8.61565 5.87784 8.73213 5.98295 8.81925 6.11932C8.90637 6.25568 8.94993 6.41667 8.94993 6.60227C8.94993 6.75189 8.92341 6.88826 8.87038 7.01136C8.81925 7.13447 8.74917 7.24337 8.66016 7.33807C8.57114 7.43087 8.47076 7.51136 8.35902 7.57955C8.17341 7.69129 8.01432 7.81345 7.88175 7.94602C7.74917 8.0786 7.6469 8.25189 7.57493 8.46591C7.50296 8.67992 7.46508 8.9678 7.46129 9.32955ZM7.46413 10.8949C7.56451 10.9953 7.68478 11.0455 7.82493 11.0455C7.91963 11.0455 8.00485 11.0227 8.08061 10.9773C8.15826 10.9299 8.21982 10.8674 8.26527 10.7898C8.31262 10.7121 8.33629 10.6269 8.33629 10.5341C8.33629 10.3939 8.2861 10.2737 8.18572 10.1733C8.08535 10.0729 7.96508 10.0227 7.82493 10.0227C7.68478 10.0227 7.56451 10.0729 7.46413 10.1733C7.36375 10.2737 7.31357 10.3939 7.31357 10.5341C7.31357 10.6742 7.36375 10.7945 7.46413 10.8949Z" fill="#6E6E6E"/>
</svg>
