<svg width="16" height="16" viewBox="0 0 16 16" fill="none" xmlns="http://www.w3.org/2000/svg">
<path d="M15 4L13 3V13L15 12V4Z" fill="#6E6E6E"/>
<path d="M3 3L1 4V12L3 13V3Z" fill="#6E6E6E"/>
<path d="M13 13H3L4 15H12L13 13Z" fill="#6E6E6E"/>
<path d="M12 1H4L3 3H13L12 1Z" fill="#6E6E6E"/>
<path fill-rule="evenodd" clip-rule="evenodd" d="M12 4H4V12H8.25999C8.16668 11.9487 8.08652 11.8862 8.01953 11.8125C7.90589 11.6875 7.82351 11.5294 7.77237 11.3381C7.72313 11.1468 7.69851 10.9205 7.69851 10.6591V9.75C7.69851 9.43939 7.63506 9.2178 7.50817 9.08523C7.38317 8.95265 7.16252 8.88636 6.84624 8.88636V8.55682V8.53409V8.20455C7.16252 8.20455 7.38317 8.13826 7.50817 8.00568C7.63506 7.87311 7.69851 7.65152 7.69851 7.34091V6.43182C7.69851 6.17045 7.72313 5.94413 7.77237 5.75284C7.82351 5.56155 7.90589 5.40341 8.01953 5.27841C8.13317 5.15341 8.28468 5.06061 8.47408 5C8.66347 4.93939 8.89737 4.90909 9.17578 4.90909V5.46591C8.95608 5.46591 8.78279 5.5 8.6559 5.56818C8.5309 5.63636 8.44188 5.74242 8.38885 5.88636C8.33771 6.02841 8.31215 6.21023 8.31215 6.43182V7.56818C8.31215 7.71591 8.29226 7.85038 8.25249 7.97159C8.21461 8.0928 8.14358 8.19697 8.03942 8.28409C7.93525 8.37121 7.78658 8.43845 7.59339 8.4858C7.56878 8.49189 7.54321 8.49759 7.51669 8.5029V8.58801C7.54321 8.59332 7.56878 8.59902 7.59339 8.60511C7.78658 8.65246 7.93525 8.7197 8.03942 8.80682C8.14358 8.89394 8.21461 8.99811 8.25249 9.11932C8.29226 9.24053 8.31215 9.375 8.31215 9.52273V10.6591C8.31215 10.8807 8.33771 11.0625 8.38885 11.2045C8.44188 11.3466 8.5309 11.4517 8.6559 11.5199C8.78279 11.59 8.95608 11.625 9.17578 11.625V12H12V4Z" fill="#6E6E6E"/>
</svg>
