<svg width="16" height="16" viewBox="0 0 16 16" fill="none" xmlns="http://www.w3.org/2000/svg">
<path d="M15 4L13 3V13L15 12V4Z" fill="#6E6E6E"/>
<path d="M3 3L1 4V12L3 13V3Z" fill="#6E6E6E"/>
<path d="M13 13H3L4 15H12L13 13Z" fill="#6E6E6E"/>
<path d="M12 1H4L3 3H13L12 1Z" fill="#6E6E6E"/>
<path fill-rule="evenodd" clip-rule="evenodd" d="M12 4H4V12H6.82351V11.625C7.04321 11.625 7.21555 11.59 7.34055 11.5199C7.46745 11.4517 7.55646 11.3466 7.6076 11.2045C7.66063 11.0625 7.68714 10.8807 7.68714 10.6591V9.52273C7.68714 9.375 7.70608 9.24053 7.74396 9.11932C7.78374 8.99811 7.85571 8.89394 7.95987 8.80682C8.06404 8.7197 8.21177 8.65246 8.40305 8.60511C8.42858 8.59886 8.45509 8.59302 8.4826 8.58759V8.50332C8.45509 8.49789 8.42858 8.49205 8.40305 8.4858C8.21177 8.43845 8.06404 8.37121 7.95987 8.28409C7.85571 8.19697 7.78374 8.0928 7.74396 7.97159C7.70608 7.85038 7.68714 7.71591 7.68714 7.56818V6.43182C7.68714 6.21023 7.66063 6.02841 7.6076 5.88636C7.55646 5.74242 7.46745 5.63636 7.34055 5.56818C7.21555 5.5 7.04321 5.46591 6.82351 5.46591V4.90909C7.10192 4.90909 7.33582 4.93939 7.52521 5C7.71461 5.06061 7.86612 5.15341 7.97976 5.27841C8.09339 5.40341 8.17483 5.56155 8.22408 5.75284C8.27521 5.94413 8.30078 6.17045 8.30078 6.43182V7.34091C8.30078 7.65152 8.36328 7.87311 8.48828 8.00568C8.61518 8.13826 8.83677 8.20455 9.15305 8.20455V8.53409V8.55682V8.88636C8.83677 8.88636 8.61518 8.95265 8.48828 9.08523C8.36328 9.2178 8.30078 9.43939 8.30078 9.75V10.6591C8.30078 10.9205 8.27521 11.1468 8.22408 11.3381C8.17483 11.5294 8.09339 11.6875 7.97976 11.8125C7.91277 11.8862 7.83261 11.9487 7.7393 12H12V4Z" fill="#6E6E6E"/>
</svg>
