<svg width="16" height="16" viewBox="0 0 16 16" fill="none" xmlns="http://www.w3.org/2000/svg">
<path d="M15 4L13 3V13L15 12V4Z" fill="#6E6E6E"/>
<path d="M3 3L1 4V12L3 13V3Z" fill="#6E6E6E"/>
<path d="M13 13H3L4 15H12L13 13Z" fill="#6E6E6E"/>
<path d="M12 1H4L3 3H13L12 1Z" fill="#6E6E6E"/>
<path fill-rule="evenodd" clip-rule="evenodd" d="M12 4H4V12H12V4ZM6.17578 8.5142C6.06783 8.70549 6.01669 8.95833 6.02237 9.27273H6.63601C6.63222 9.02462 6.67957 8.84754 6.77805 8.74148C6.87843 8.63352 7.00533 8.57955 7.15874 8.57955C7.25911 8.57955 7.35192 8.60417 7.43714 8.65341C7.52237 8.70265 7.63411 8.78788 7.77237 8.90909C7.98071 9.08902 8.16442 9.22159 8.32351 9.30682C8.4826 9.39015 8.65874 9.43182 8.85192 9.43182C9.0451 9.43182 9.22881 9.38826 9.40305 9.30114C9.5773 9.21402 9.71745 9.07481 9.82351 8.88352C9.93146 8.69223 9.9826 8.43939 9.97692 8.125H9.36328C9.36707 8.35038 9.32161 8.52273 9.22692 8.64205C9.13222 8.75947 9.00343 8.81818 8.84055 8.81818C8.74018 8.81818 8.64737 8.79356 8.56215 8.74432C8.47881 8.69508 8.36707 8.60985 8.22692 8.48864C8.02048 8.30871 7.83677 8.17708 7.67578 8.09375C7.51669 8.00852 7.34055 7.96591 7.14737 7.96591C6.95419 7.96591 6.77048 8.00947 6.59624 8.09659C6.42389 8.18371 6.28374 8.32292 6.17578 8.5142Z" fill="#6E6E6E"/>
</svg>
