<svg width="16" height="16" viewBox="0 0 16 16" fill="none" xmlns="http://www.w3.org/2000/svg">
<path d="M15 4L13 3V13L15 12V4Z" fill="#6E6E6E"/>
<path d="M3 3L1 4V12L3 13V3Z" fill="#6E6E6E"/>
<path d="M13 13H3L4 15H12L13 13Z" fill="#6E6E6E"/>
<path d="M12 1H4L3 3H13L12 1Z" fill="#6E6E6E"/>
<path fill-rule="evenodd" clip-rule="evenodd" d="M12 4H4V12H12V4ZM7.97558 7.94318L6.70632 5.18182H5.92223L7.37767 8.10227H6.37678V8.61364H7.63251L7.6495 8.64773V9.22727H6.37678V9.73864H7.6495V11H8.35405V9.73864H9.62678V9.22727H8.35405V8.64773L8.37104 8.61364H9.62678V8.10227H8.62588L10.0813 5.18182H9.29723L8.02797 7.94318H7.97558Z" fill="#6E6E6E"/>
</svg>
