<svg width="16" height="16" viewBox="0 0 16 16" fill="none" xmlns="http://www.w3.org/2000/svg">
<path d="M15 4L13 3V13L15 12V4Z" fill="#6E6E6E"/>
<path d="M3 3L1 4V12L3 13V3Z" fill="#6E6E6E"/>
<path d="M13 13H3L4 15H12L13 13Z" fill="#6E6E6E"/>
<path d="M12 1H4L3 3H13L12 1Z" fill="#6E6E6E"/>
<path fill-rule="evenodd" clip-rule="evenodd" d="M12 4H4V12H12V4ZM5.45632 10.8949C5.5567 10.9953 5.67696 11.0455 5.81712 11.0455C5.91181 11.0455 5.99704 11.0227 6.0728 10.9773C6.15045 10.9299 6.212 10.8674 6.25746 10.7898C6.30481 10.7121 6.32848 10.6269 6.32848 10.5341C6.32848 10.3939 6.27829 10.2737 6.17791 10.1733C6.07753 10.0729 5.95727 10.0227 5.81712 10.0227C5.67696 10.0227 5.5567 10.0729 5.45632 10.1733C5.35594 10.2737 5.30575 10.3939 5.30575 10.5341C5.30575 10.6742 5.35594 10.7945 5.45632 10.8949ZM7.63814 10.8949C7.73852 10.9953 7.85878 11.0455 7.99893 11.0455C8.09363 11.0455 8.17886 11.0227 8.25462 10.9773C8.33227 10.9299 8.39382 10.8674 8.43928 10.7898C8.48662 10.7121 8.5103 10.6269 8.5103 10.5341C8.5103 10.3939 8.46011 10.2737 8.35973 10.1733C8.25935 10.0729 8.13909 10.0227 7.99893 10.0227C7.85878 10.0227 7.73852 10.0729 7.63814 10.1733C7.53776 10.2737 7.48757 10.3939 7.48757 10.5341C7.48757 10.6742 7.53776 10.7945 7.63814 10.8949ZM9.81996 10.8949C9.92034 10.9953 10.0406 11.0455 10.1808 11.0455C10.2754 11.0455 10.3607 11.0227 10.4364 10.9773C10.5141 10.9299 10.5756 10.8674 10.6211 10.7898C10.6684 10.7121 10.6921 10.6269 10.6921 10.5341C10.6921 10.3939 10.6419 10.2737 10.5415 10.1733C10.4412 10.0729 10.3209 10.0227 10.1808 10.0227C10.0406 10.0227 9.92034 10.0729 9.81996 10.1733C9.71958 10.2737 9.66939 10.3939 9.66939 10.5341C9.66939 10.6742 9.71958 10.7945 9.81996 10.8949Z" fill="#6E6E6E"/>
</svg>
