<svg width="16" height="16" viewBox="0 0 16 16" fill="none" xmlns="http://www.w3.org/2000/svg">
<path d="M15 4L13 3V13L15 12V4Z" fill="#6E6E6E"/>
<path d="M3 3L1 4V12L3 13V3Z" fill="#6E6E6E"/>
<path d="M13 13H3L4 15H12L13 13Z" fill="#6E6E6E"/>
<path d="M12 1H4L3 3H13L12 1Z" fill="#6E6E6E"/>
<path fill-rule="evenodd" clip-rule="evenodd" d="M12 4H4V12H12V4ZM8.00107 4.72727L4.63743 8.09091H6.3647V11H9.63743V8.09091H11.3647L8.00107 4.72727ZM6.93288 7.57955H5.913L8.00107 5.49148L10.0891 7.57955H9.06925V10.4886H6.93288V7.57955Z" fill="#6E6E6E"/>
</svg>
