<svg width="16" height="16" viewBox="0 0 16 16" fill="none" xmlns="http://www.w3.org/2000/svg">
<path d="M15 4L13 3V13L15 12V4Z" fill="#6E6E6E"/>
<path d="M3 3L1 4V12L3 13V3Z" fill="#6E6E6E"/>
<path d="M13 13H3L4 15H12L13 13Z" fill="#6E6E6E"/>
<path d="M12 1H4L3 3H13L12 1Z" fill="#6E6E6E"/>
<path fill-rule="evenodd" clip-rule="evenodd" d="M12 4H4V12H12V4ZM5.57564 10.9659C5.76314 11.0758 5.96958 11.1307 6.19496 11.1307C6.42223 11.1307 6.62962 11.0758 6.81712 10.9659C7.00462 10.8542 7.15424 10.7045 7.26598 10.517C7.37772 10.3295 7.43359 10.1231 7.43359 9.89773V9.23864H8.57564V9.89773C8.57564 10.1231 8.63056 10.3295 8.74041 10.517C8.85215 10.7045 9.00083 10.8542 9.18643 10.9659C9.37393 11.0758 9.58132 11.1307 9.80859 11.1307C10.0359 11.1307 10.2423 11.0758 10.4279 10.9659C10.6154 10.8542 10.7641 10.7045 10.8739 10.517C10.9857 10.3295 11.0415 10.1231 11.0415 9.89773C11.0415 9.67045 10.9857 9.46307 10.8739 9.27557C10.7641 9.08807 10.6154 8.93845 10.4279 8.8267C10.2423 8.71496 10.0359 8.65909 9.80859 8.65909H9.15518V7.51705H9.80859C10.0359 7.51705 10.2423 7.46212 10.4279 7.35227C10.6154 7.24053 10.7641 7.09186 10.8739 6.90625C10.9857 6.71875 11.0415 6.51136 11.0415 6.28409C11.0415 6.05682 10.9857 5.85038 10.8739 5.66477C10.7641 5.47727 10.6154 5.3286 10.4279 5.21875C10.2423 5.10701 10.0359 5.05114 9.80859 5.05114C9.58132 5.05114 9.37393 5.10701 9.18643 5.21875C9.00083 5.3286 8.85215 5.47727 8.74041 5.66477C8.63056 5.85038 8.57564 6.05682 8.57564 6.28409V6.9375H7.43359V6.28409C7.43359 6.05682 7.37772 5.85038 7.26598 5.66477C7.15424 5.47727 7.00462 5.3286 6.81712 5.21875C6.62962 5.10701 6.42223 5.05114 6.19496 5.05114C5.96958 5.05114 5.76314 5.10701 5.57564 5.21875C5.38814 5.3286 5.23852 5.47727 5.12678 5.66477C5.01693 5.85038 4.962 6.05682 4.962 6.28409C4.962 6.51136 5.01693 6.71875 5.12678 6.90625C5.23852 7.09186 5.38814 7.24053 5.57564 7.35227C5.76314 7.46212 5.96958 7.51705 6.19496 7.51705H6.85405V8.65909H6.19496C5.96958 8.65909 5.76314 8.71496 5.57564 8.8267C5.38814 8.93845 5.23852 9.08807 5.12678 9.27557C5.01693 9.46307 4.962 9.67045 4.962 9.89773C4.962 10.1231 5.01693 10.3295 5.12678 10.517C5.23852 10.7045 5.38814 10.8542 5.57564 10.9659ZM6.5245 10.4631C6.42602 10.5218 6.31617 10.5511 6.19496 10.5511C6.07564 10.5511 5.96579 10.5218 5.86541 10.4631C5.76693 10.4044 5.68833 10.3258 5.62962 10.2273C5.5709 10.1269 5.54155 10.017 5.54155 9.89773C5.54155 9.77652 5.5709 9.66667 5.62962 9.56818C5.68833 9.4678 5.76693 9.38826 5.86541 9.32955C5.96579 9.26894 6.07564 9.23864 6.19496 9.23864H6.85405V9.89773C6.85405 10.017 6.82375 10.1269 6.76314 10.2273C6.70443 10.3258 6.62488 10.4044 6.5245 10.4631ZM6.85405 6.9375H6.19496C6.07564 6.9375 5.96579 6.90909 5.86541 6.85227C5.76693 6.79356 5.68833 6.71496 5.62962 6.61648C5.5709 6.5161 5.54155 6.4053 5.54155 6.28409C5.54155 6.16288 5.5709 6.05303 5.62962 5.95455C5.68833 5.85606 5.76693 5.77746 5.86541 5.71875C5.96579 5.66004 6.07564 5.63068 6.19496 5.63068C6.31617 5.63068 6.42602 5.66004 6.5245 5.71875C6.62488 5.77746 6.70443 5.85606 6.76314 5.95455C6.82375 6.05303 6.85405 6.16288 6.85405 6.28409V6.9375ZM9.80859 6.9375H9.15518V6.28409C9.15518 6.16288 9.18359 6.05303 9.24041 5.95455C9.29912 5.85606 9.37772 5.77746 9.47621 5.71875C9.57659 5.66004 9.68738 5.63068 9.80859 5.63068C9.92981 5.63068 10.0397 5.66004 10.1381 5.71875C10.2366 5.77746 10.3152 5.85606 10.3739 5.95455C10.4326 6.05303 10.462 6.16288 10.462 6.28409C10.462 6.4053 10.4326 6.5161 10.3739 6.61648C10.3152 6.71496 10.2366 6.79356 10.1381 6.85227C10.0397 6.90909 9.92981 6.9375 9.80859 6.9375ZM10.1381 10.4631C10.0397 10.5218 9.92981 10.5511 9.80859 10.5511C9.68738 10.5511 9.57659 10.5218 9.47621 10.4631C9.37772 10.4044 9.29912 10.3258 9.24041 10.2273C9.18359 10.1269 9.15518 10.017 9.15518 9.89773V9.23864H9.80859C9.92981 9.23864 10.0397 9.26894 10.1381 9.32955C10.2366 9.38826 10.3152 9.4678 10.3739 9.56818C10.4326 9.66667 10.462 9.77652 10.462 9.89773C10.462 10.017 10.4326 10.1269 10.3739 10.2273C10.3152 10.3258 10.2366 10.4044 10.1381 10.4631ZM8.57564 8.65909H7.43359V7.51705H8.57564V8.65909Z" fill="#6E6E6E"/>
</svg>
