<svg width="16" height="16" viewBox="0 0 16 16" fill="none" xmlns="http://www.w3.org/2000/svg">
<path d="M15 4L13 3V13L15 12V4Z" fill="#6E6E6E"/>
<path d="M3 3L1 4V12L3 13V3Z" fill="#6E6E6E"/>
<path d="M13 13H3L4 15H12L13 13Z" fill="#6E6E6E"/>
<path d="M12 1H4L3 3H13L12 1Z" fill="#6E6E6E"/>
<path fill-rule="evenodd" clip-rule="evenodd" d="M12 4H4V12H12V4ZM7.63991 10.8949C7.74029 10.9953 7.86056 11.0455 8.00071 11.0455C8.09541 11.0455 8.18063 11.0227 8.25639 10.9773C8.33404 10.9299 8.3956 10.8674 8.44105 10.7898C8.4884 10.7121 8.51207 10.6269 8.51207 10.5341C8.51207 10.3939 8.46188 10.2737 8.36151 10.1733C8.26113 10.0729 8.14086 10.0227 8.00071 10.0227C7.86056 10.0227 7.74029 10.0729 7.63991 10.1733C7.53954 10.2737 7.48935 10.3939 7.48935 10.5341C7.48935 10.6742 7.53954 10.7945 7.63991 10.8949ZM7.63991 7.65625C7.74029 7.75663 7.86056 7.80682 8.00071 7.80682C8.09541 7.80682 8.18063 7.78409 8.25639 7.73864C8.33404 7.69129 8.3956 7.62879 8.44105 7.55114C8.4884 7.47348 8.51207 7.38826 8.51207 7.29545C8.51207 7.1553 8.46188 7.03504 8.36151 6.93466C8.26113 6.83428 8.14086 6.78409 8.00071 6.78409C7.86056 6.78409 7.74029 6.83428 7.63991 6.93466C7.53954 7.03504 7.48935 7.1553 7.48935 7.29545C7.48935 7.43561 7.53954 7.55587 7.63991 7.65625Z" fill="#6E6E6E"/>
</svg>
