<svg width="16" height="16" viewBox="0 0 16 16" fill="none" xmlns="http://www.w3.org/2000/svg">
<path d="M15 4L13 3V13L15 12V4Z" fill="#6E6E6E"/>
<path d="M3 3L1 4V12L3 13V3Z" fill="#6E6E6E"/>
<path d="M13 13H3L4 15H12L13 13Z" fill="#6E6E6E"/>
<path d="M12 1H4L3 3H13L12 1Z" fill="#6E6E6E"/>
<path fill-rule="evenodd" clip-rule="evenodd" d="M12 4H4V12H12V4ZM5.50142 11H6.24006L6.82498 9.35227H9.17786L9.76278 11H10.5014L8.36506 5.18182H7.63778L5.50142 11ZM8.95599 8.72727L8.02415 6.10227H7.97869L7.04685 8.72727H8.95599Z" fill="#6E6E6E"/>
</svg>
