<svg width="16" height="16" viewBox="0 0 16 16" fill="none" xmlns="http://www.w3.org/2000/svg">
<path d="M15 4L13 3V13L15 12V4Z" fill="#6E6E6E"/>
<path d="M3 3L1 4V12L3 13V3Z" fill="#6E6E6E"/>
<path d="M13 13H3L4 15H12L13 13Z" fill="#6E6E6E"/>
<path d="M12 1H4L3 3H13L12 1Z" fill="#6E6E6E"/>
<path fill-rule="evenodd" clip-rule="evenodd" d="M12 4H4V12H12V4ZM6.10298 5.18182V11H8.20526C8.66359 11 9.03575 10.9318 9.32173 10.7955C9.60772 10.6591 9.817 10.4744 9.94957 10.2415C10.0821 10.0085 10.1484 9.74621 10.1484 9.45455C10.1484 9.14773 10.0878 8.88826 9.96662 8.67614C9.84541 8.46402 9.69484 8.30114 9.51491 8.1875C9.33499 8.07386 9.15601 8.01136 8.97798 8V7.94318C9.14465 7.89773 9.29901 7.82765 9.44105 7.73295C9.58499 7.63826 9.70052 7.50947 9.78764 7.34659C9.87666 7.18371 9.92116 6.97727 9.92116 6.72727C9.92116 6.44318 9.85677 6.18466 9.72798 5.9517C9.5992 5.71686 9.40317 5.5303 9.13991 5.39205C8.87666 5.25189 8.54238 5.18182 8.13707 5.18182H6.10298ZM8.20526 10.375H6.80753V8.35227H8.23935C8.49313 8.35227 8.71283 8.40341 8.89844 8.50568C9.08404 8.60606 9.22704 8.74053 9.32741 8.90909C9.42779 9.07576 9.47798 9.25758 9.47798 9.45455C9.47798 9.71023 9.38045 9.92803 9.18537 10.108C8.99219 10.286 8.66548 10.375 8.20526 10.375ZM8.11435 7.73864H6.80753V5.80682H8.13707C8.52344 5.80682 8.80563 5.89678 8.98366 6.0767C9.1617 6.25473 9.25071 6.47159 9.25071 6.72727C9.25071 6.93182 9.19957 7.10985 9.0973 7.26136C8.99692 7.41288 8.86056 7.5303 8.68821 7.61364C8.51776 7.69697 8.32647 7.73864 8.11435 7.73864Z" fill="#6E6E6E"/>
</svg>
