<svg width="16" height="16" viewBox="0 0 16 16" fill="none" xmlns="http://www.w3.org/2000/svg">
<path d="M15 4L13 3V13L15 12V4Z" fill="#6E6E6E"/>
<path d="M3 3L1 4V12L3 13V3Z" fill="#6E6E6E"/>
<path d="M13 13H3L4 15H12L13 13Z" fill="#6E6E6E"/>
<path d="M12 1H4L3 3H13L12 1Z" fill="#6E6E6E"/>
<path fill-rule="evenodd" clip-rule="evenodd" d="M12 4H4V12H12V4ZM9.77166 7H10.4762C10.4232 6.70076 10.3266 6.43466 10.1864 6.2017C10.0463 5.96686 9.87204 5.76799 9.66371 5.60511C9.45537 5.44034 9.22147 5.31534 8.962 5.23011C8.70443 5.14489 8.42886 5.10227 8.1353 5.10227C7.63909 5.10227 7.1978 5.22348 6.81143 5.46591C6.42507 5.70833 6.12109 6.05303 5.8995 6.5C5.67791 6.94697 5.56712 7.47727 5.56712 8.09091C5.56712 8.70455 5.67791 9.23485 5.8995 9.68182C6.12109 10.1288 6.42507 10.4735 6.81143 10.7159C7.1978 10.9583 7.63909 11.0795 8.1353 11.0795C8.42886 11.0795 8.70443 11.0369 8.962 10.9517C9.22147 10.8665 9.45537 10.7424 9.66371 10.5795C9.87204 10.4148 10.0463 10.215 10.1864 9.98011C10.3266 9.74527 10.4232 9.47917 10.4762 9.18182H9.77166C9.73 9.38258 9.65708 9.56061 9.55291 9.71591C9.45064 9.86932 9.32564 9.99905 9.17791 10.1051C9.03208 10.2093 8.87015 10.2879 8.69212 10.3409C8.51409 10.3939 8.32848 10.4205 8.1353 10.4205C7.78303 10.4205 7.4639 10.3314 7.17791 10.1534C6.89382 9.97538 6.6675 9.71307 6.49893 9.36648C6.33227 9.01989 6.24893 8.5947 6.24893 8.09091C6.24893 7.58712 6.33227 7.16193 6.49893 6.81534C6.6675 6.46875 6.89382 6.20644 7.17791 6.02841C7.4639 5.85038 7.78303 5.76136 8.1353 5.76136C8.32848 5.76136 8.51409 5.78788 8.69212 5.84091C8.87015 5.89394 9.03208 5.97348 9.17791 6.07955C9.32564 6.18371 9.45064 6.3125 9.55291 6.46591C9.65708 6.61932 9.73 6.79735 9.77166 7Z" fill="#6E6E6E"/>
</svg>
