<svg width="16" height="16" viewBox="0 0 16 16" fill="none" xmlns="http://www.w3.org/2000/svg">
<path d="M15 4L13 3V13L15 12V4Z" fill="#6E6E6E"/>
<path d="M3 3L1 4V12L3 13V3Z" fill="#6E6E6E"/>
<path d="M13 13H3L4 15H12L13 13Z" fill="#6E6E6E"/>
<path d="M12 1H4L3 3H13L12 1Z" fill="#6E6E6E"/>
<path fill-rule="evenodd" clip-rule="evenodd" d="M12 4H4V12H12V4ZM5.82955 11H7.625C8.21591 11 8.7178 10.8835 9.13068 10.6506C9.54356 10.4157 9.85795 10.0805 10.0739 9.64489C10.2898 9.20739 10.3977 8.68561 10.3977 8.07955C10.3977 7.47727 10.2907 6.96023 10.0767 6.52841C9.86269 6.0947 9.55492 5.76231 9.15341 5.53125C8.75189 5.2983 8.26894 5.18182 7.70455 5.18182H5.82955V11ZM7.57955 10.375H6.53409V5.80682H7.65909C8.11364 5.80682 8.49337 5.89867 8.7983 6.08239C9.10322 6.2642 9.33239 6.52557 9.4858 6.86648C9.6392 7.20549 9.71591 7.60985 9.71591 8.07955C9.71591 8.55303 9.63826 8.96117 9.48295 9.30398C9.32765 9.64678 9.09186 9.91098 8.77557 10.0966C8.45928 10.2822 8.06061 10.375 7.57955 10.375Z" fill="#6E6E6E"/>
</svg>
