<svg width="16" height="16" viewBox="0 0 16 16" fill="none" xmlns="http://www.w3.org/2000/svg">
<path d="M15 4L13 3V13L15 12V4Z" fill="#6E6E6E"/>
<path d="M3 3L1 4V12L3 13V3Z" fill="#6E6E6E"/>
<path d="M13 13H3L4 15H12L13 13Z" fill="#6E6E6E"/>
<path d="M12 1H4L3 3H13L12 1Z" fill="#6E6E6E"/>
<path fill-rule="evenodd" clip-rule="evenodd" d="M12 4H4V12H12V4ZM9.462 6.4858C9.56428 6.63731 9.64666 6.80871 9.70916 7H10.4364C10.3834 6.7178 10.2868 6.46117 10.1467 6.23011C10.0065 5.99716 9.83132 5.79735 9.62109 5.63068C9.41276 5.46212 9.17507 5.33239 8.90803 5.24148C8.64287 5.14867 8.35689 5.10227 8.05007 5.10227C7.67696 5.10227 7.33511 5.1714 7.0245 5.30966C6.7139 5.44792 6.44496 5.64678 6.21768 5.90625C5.99041 6.16572 5.81428 6.48011 5.68928 6.84943C5.56617 7.21686 5.50462 7.63068 5.50462 8.09091C5.50462 8.70455 5.61257 9.23485 5.82848 9.68182C6.04628 10.1288 6.34931 10.4735 6.73757 10.7159C7.12772 10.9583 7.58037 11.0795 8.09553 11.0795C8.55765 11.0795 8.96674 10.983 9.3228 10.7898C9.68075 10.5947 9.96106 10.3201 10.1637 9.96591C10.3683 9.61174 10.4705 9.19508 10.4705 8.71591V8.09091H8.25462V8.71591H9.78831C9.78242 9.05293 9.71058 9.34744 9.5728 9.59943C9.43075 9.8608 9.23189 10.0634 8.97621 10.2074C8.72242 10.3494 8.42886 10.4205 8.09553 10.4205C7.73568 10.4205 7.41181 10.3314 7.12393 10.1534C6.83606 9.97538 6.60784 9.71307 6.43928 9.36648C6.27071 9.01989 6.18643 8.5947 6.18643 8.09091C6.18643 7.58712 6.26977 7.16193 6.43643 6.81534C6.6031 6.46875 6.82753 6.20644 7.10973 6.02841C7.39193 5.85038 7.70537 5.76136 8.05007 5.76136C8.2603 5.76136 8.45348 5.78977 8.62962 5.84659C8.80575 5.90341 8.96295 5.9858 9.10121 6.09375C9.24136 6.2017 9.36162 6.33239 9.462 6.4858Z" fill="#6E6E6E"/>
</svg>
