<svg width="16" height="16" viewBox="0 0 16 16" fill="none" xmlns="http://www.w3.org/2000/svg">
<path d="M15 4L13 3V13L15 12V4Z" fill="#6E6E6E"/>
<path d="M3 3L1 4V12L3 13V3Z" fill="#6E6E6E"/>
<path d="M13 13H3L4 15H12L13 13Z" fill="#6E6E6E"/>
<path d="M12 1H4L3 3H13L12 1Z" fill="#6E6E6E"/>
<path fill-rule="evenodd" clip-rule="evenodd" d="M12 4H4V12H12V4ZM9.46449 5.18182H8.75994V9.34091C8.75994 9.58144 8.72206 9.78504 8.64631 9.9517C8.57244 10.1165 8.46449 10.2415 8.32244 10.3267C8.1804 10.4119 8.00805 10.4545 7.8054 10.4545C7.62169 10.4545 7.45786 10.4205 7.31392 10.3523C7.16998 10.2841 7.05634 10.1894 6.97301 10.0682C6.89157 9.94508 6.85085 9.80114 6.85085 9.63636H6.15767C6.15767 9.93371 6.22869 10.1903 6.37074 10.4062C6.51278 10.6222 6.70786 10.7888 6.95597 10.9062C7.20407 11.0218 7.48722 11.0795 7.8054 11.0795C8.14252 11.0795 8.43513 11.0123 8.68324 10.8778C8.93134 10.7434 9.12358 10.5464 9.25994 10.2869C9.39631 10.0275 9.46449 9.71212 9.46449 9.34091V5.18182Z" fill="#6E6E6E"/>
</svg>
