<svg width="16" height="16" viewBox="0 0 16 16" fill="none" xmlns="http://www.w3.org/2000/svg">
<path d="M15 4L13 3V13L15 12V4Z" fill="#6E6E6E"/>
<path d="M3 3L1 4V12L3 13V3Z" fill="#6E6E6E"/>
<path d="M13 13H3L4 15H12L13 13Z" fill="#6E6E6E"/>
<path d="M12 1H4L3 3H13L12 1Z" fill="#6E6E6E"/>
<path fill-rule="evenodd" clip-rule="evenodd" d="M12 4H4V12H12V4ZM5.98686 5.18182H5.14595V11H5.80504V6.57955H5.86186L7.68004 11H8.31641L10.1346 6.57955H10.1914V11H10.8505V5.18182H10.0096L8.03232 10.0114H7.96413L5.98686 5.18182Z" fill="#6E6E6E"/>
</svg>
