<svg width="16" height="16" viewBox="0 0 16 16" fill="none" xmlns="http://www.w3.org/2000/svg">
<path d="M15 4L13 3V13L15 12V4Z" fill="#6E6E6E"/>
<path d="M3 3L1 4V12L3 13V3Z" fill="#6E6E6E"/>
<path d="M13 13H3L4 15H12L13 13Z" fill="#6E6E6E"/>
<path d="M12 1H4L3 3H13L12 1Z" fill="#6E6E6E"/>
<path fill-rule="evenodd" clip-rule="evenodd" d="M12 4H4V12H12V4ZM10.2344 9.68182C10.456 9.23485 10.5668 8.70455 10.5668 8.09091C10.5668 7.47727 10.456 6.94697 10.2344 6.5C10.0128 6.05303 9.70881 5.70833 9.32244 5.46591C8.93608 5.22348 8.49479 5.10227 7.99858 5.10227C7.50237 5.10227 7.06108 5.22348 6.67472 5.46591C6.28835 5.70833 5.98438 6.05303 5.76278 6.5C5.54119 6.94697 5.4304 7.47727 5.4304 8.09091C5.4304 8.70455 5.54119 9.23485 5.76278 9.68182C5.98438 10.1288 6.28835 10.4735 6.67472 10.7159C7.06108 10.9583 7.50237 11.0795 7.99858 11.0795C8.49479 11.0795 8.93608 10.9583 9.32244 10.7159C9.70881 10.4735 10.0128 10.1288 10.2344 9.68182ZM9.6321 6.81534C9.80066 7.16193 9.88494 7.58712 9.88494 8.09091C9.88494 8.5947 9.80066 9.01989 9.6321 9.36648C9.46544 9.71307 9.23911 9.97538 8.95312 10.1534C8.66903 10.3314 8.35085 10.4205 7.99858 10.4205C7.64631 10.4205 7.32718 10.3314 7.04119 10.1534C6.7571 9.97538 6.53078 9.71307 6.36222 9.36648C6.19555 9.01989 6.11222 8.5947 6.11222 8.09091C6.11222 7.58712 6.19555 7.16193 6.36222 6.81534C6.53078 6.46875 6.7571 6.20644 7.04119 6.02841C7.32718 5.85038 7.64631 5.76136 7.99858 5.76136C8.35085 5.76136 8.66903 5.85038 8.95312 6.02841C9.23911 6.20644 9.46544 6.46875 9.6321 6.81534Z" fill="#6E6E6E"/>
</svg>
