<svg width="16" height="16" viewBox="0 0 16 16" fill="none" xmlns="http://www.w3.org/2000/svg">
<path d="M15 4L13 3V13L15 12V4Z" fill="#6E6E6E"/>
<path d="M3 3L1 4V12L3 13V3Z" fill="#6E6E6E"/>
<path d="M13 13H3L4 15H12L13 13Z" fill="#6E6E6E"/>
<path d="M12 1H4L3 3H13L12 1Z" fill="#6E6E6E"/>
<path fill-rule="evenodd" clip-rule="evenodd" d="M12 4H4V12H12V4ZM8.92081 5.96591C9.16323 6.125 9.30149 6.34848 9.33558 6.63636H10.0174C10.0079 6.3428 9.91702 6.08049 9.74467 5.84943C9.57422 5.61837 9.34316 5.43655 9.05149 5.30398C8.75982 5.16951 8.42649 5.10227 8.05149 5.10227C7.68028 5.10227 7.34411 5.17045 7.04297 5.30682C6.74373 5.44129 6.50509 5.63068 6.32706 5.875C6.15092 6.11742 6.06286 6.40151 6.06286 6.72727C6.06286 7.11932 6.19543 7.43655 6.46058 7.67898C6.72573 7.9214 7.08558 8.10795 7.54013 8.23864L8.25604 8.44318C8.46058 8.5 8.65092 8.56629 8.82706 8.64205C9.0032 8.7178 9.14524 8.81629 9.2532 8.9375C9.36115 9.05871 9.41513 9.21591 9.41513 9.40909C9.41513 9.62121 9.35263 9.80682 9.22763 9.96591C9.10263 10.1231 8.93312 10.2462 8.71911 10.3352C8.50509 10.4223 8.26361 10.4659 7.99467 10.4659C7.76361 10.4659 7.5477 10.4318 7.34695 10.3636C7.14808 10.2936 6.98331 10.1875 6.85263 10.0455C6.72384 9.90152 6.64998 9.7197 6.63104 9.5H5.90376C5.92649 9.81818 6.02403 10.0975 6.19638 10.3381C6.37062 10.5786 6.60926 10.7661 6.91229 10.9006C7.21721 11.035 7.57801 11.1023 7.99467 11.1023C8.44164 11.1023 8.82138 11.0275 9.13388 10.8778C9.44827 10.7282 9.68691 10.5265 9.84979 10.2727C10.0146 10.0189 10.0969 9.73485 10.0969 9.42045C10.0969 9.14773 10.0411 8.91761 9.92933 8.73011C9.81759 8.54261 9.67554 8.3892 9.5032 8.26989C9.33274 8.14867 9.15376 8.05303 8.96626 7.98295C8.78066 7.91288 8.6121 7.85795 8.46058 7.81818L7.86967 7.65909C7.76172 7.63068 7.64335 7.59375 7.51456 7.5483C7.38577 7.50095 7.26267 7.44129 7.14524 7.36932C7.02782 7.29545 6.93123 7.2036 6.85547 7.09375C6.78161 6.98201 6.74467 6.84848 6.74467 6.69318C6.74467 6.50758 6.7977 6.34186 6.90376 6.19602C7.01172 6.05019 7.16134 5.93561 7.35263 5.85227C7.54581 5.76894 7.77119 5.72727 8.02876 5.72727C8.38104 5.72727 8.67839 5.80682 8.92081 5.96591Z" fill="#6E6E6E"/>
</svg>
