<svg width="16" height="16" viewBox="0 0 16 16" fill="none" xmlns="http://www.w3.org/2000/svg">
<path d="M15 4L13 3V13L15 12V4Z" fill="#6E6E6E"/>
<path d="M3 3L1 4V12L3 13V3Z" fill="#6E6E6E"/>
<path d="M13 13H3L4 15H12L13 13Z" fill="#6E6E6E"/>
<path d="M12 1H4L3 3H13L12 1Z" fill="#6E6E6E"/>
<path fill-rule="evenodd" clip-rule="evenodd" d="M12 4H4V12H12V4ZM10.2624 5.18182H9.55788V8.97727C9.55788 9.26136 9.49538 9.5142 9.37038 9.7358C9.24728 9.95549 9.06925 10.1288 8.83629 10.2557C8.60334 10.3807 8.32493 10.4432 8.00107 10.4432C7.6772 10.4432 7.39879 10.3807 7.16584 10.2557C6.93478 10.1288 6.75675 9.95549 6.63175 9.7358C6.50675 9.5142 6.44425 9.26136 6.44425 8.97727V5.18182H5.7397V9.03409C5.7397 9.43182 5.8325 9.78693 6.01811 10.0994C6.20561 10.41 6.46887 10.6553 6.80788 10.8352C7.1469 11.0133 7.54463 11.1023 8.00107 11.1023C8.4575 11.1023 8.85523 11.0133 9.19425 10.8352C9.53326 10.6553 9.79557 10.41 9.98118 10.0994C10.1687 9.78693 10.2624 9.43182 10.2624 9.03409V5.18182Z" fill="#6E6E6E"/>
</svg>
