<svg width="16" height="16" viewBox="0 0 16 16" fill="none" xmlns="http://www.w3.org/2000/svg">
<path d="M15 4L13 3V13L15 12V4Z" fill="#6E6E6E"/>
<path d="M3 3L1 4V12L3 13V3Z" fill="#6E6E6E"/>
<path d="M13 13H3L4 15H12L13 13Z" fill="#6E6E6E"/>
<path d="M12 1H4L3 3H13L12 1Z" fill="#6E6E6E"/>
<path fill-rule="evenodd" clip-rule="evenodd" d="M12 4H4V12H12V4ZM6.90625 10.7301C7.20739 10.9631 7.57197 11.0795 8 11.0795C8.42803 11.0795 8.79261 10.9631 9.09375 10.7301C9.39489 10.4953 9.625 10.1553 9.78409 9.71023C9.94318 9.26326 10.0227 8.72348 10.0227 8.09091C10.0227 7.46212 9.94223 6.92519 9.78125 6.48011C9.62216 6.03314 9.3911 5.69223 9.08807 5.45739C8.78693 5.22064 8.42424 5.10227 8 5.10227C7.57576 5.10227 7.21212 5.22064 6.90909 5.45739C6.60795 5.69223 6.37689 6.03314 6.21591 6.48011C6.05682 6.92519 5.97727 7.46212 5.97727 8.09091C5.97727 8.72348 6.05682 9.26326 6.21591 9.71023C6.375 10.1553 6.60511 10.4953 6.90625 10.7301ZM8.98864 9.84091C8.75379 10.25 8.42424 10.4545 8 10.4545C7.7178 10.4545 7.47633 10.3627 7.27557 10.179C7.0767 9.99527 6.92424 9.72727 6.81818 9.375C6.71212 9.02273 6.65909 8.5947 6.65909 8.09091C6.65909 7.33523 6.77746 6.75095 7.0142 6.33807C7.25095 5.9233 7.57955 5.71591 8 5.71591C8.2803 5.71591 8.51989 5.80871 8.71875 5.99432C8.91951 6.17992 9.07292 6.44981 9.17898 6.80398C9.28693 7.15814 9.34091 7.58712 9.34091 8.09091C9.34091 8.84848 9.22348 9.43182 8.98864 9.84091Z" fill="#6E6E6E"/>
</svg>
