<svg width="16" height="16" viewBox="0 0 16 16" fill="none" xmlns="http://www.w3.org/2000/svg">
<path d="M15 4L13 3V13L15 12V4Z" fill="#6E6E6E"/>
<path d="M3 3L1 4V12L3 13V3Z" fill="#6E6E6E"/>
<path d="M13 13H3L4 15H12L13 13Z" fill="#6E6E6E"/>
<path d="M12 1H4L3 3H13L12 1Z" fill="#6E6E6E"/>
<path fill-rule="evenodd" clip-rule="evenodd" d="M12 4H4V12H12V4ZM7.01847 10.8864C7.31203 11.0152 7.64631 11.0795 8.02131 11.0795C8.3982 11.0795 8.73438 11.0076 9.02983 10.8636C9.32528 10.7197 9.55824 10.5227 9.72869 10.2727C9.90104 10.0208 9.98722 9.73674 9.98722 9.42045C9.98722 9.05114 9.884 8.74148 9.67756 8.49148C9.47112 8.23958 9.18419 8.08333 8.81676 8.02273V7.97727C9.11032 7.88826 9.34233 7.72822 9.51278 7.49716C9.68513 7.2661 9.77131 6.98674 9.77131 6.65909C9.77131 6.38447 9.70218 6.12879 9.56392 5.89205C9.42566 5.6553 9.22775 5.46496 8.97017 5.32102C8.71259 5.17519 8.40388 5.10227 8.04403 5.10227C7.70881 5.10227 7.40104 5.16667 7.12074 5.29545C6.84233 5.42424 6.61695 5.60417 6.4446 5.83523C6.27225 6.06439 6.1804 6.33144 6.16903 6.63636H6.85085C6.86032 6.44318 6.92093 6.27841 7.03267 6.14205C7.14441 6.00379 7.28835 5.89867 7.46449 5.8267C7.64252 5.75284 7.83191 5.71591 8.03267 5.71591C8.24669 5.71591 8.43229 5.75663 8.58949 5.83807C8.74858 5.91951 8.87169 6.03314 8.95881 6.17898C9.04593 6.32481 9.08949 6.49621 9.08949 6.69318C9.08949 6.89773 9.0393 7.07576 8.93892 7.22727C8.84044 7.37879 8.70312 7.49621 8.52699 7.57955C8.35275 7.66288 8.15009 7.70455 7.91903 7.70455H7.45312V8.32955H7.91903C8.21449 8.32955 8.46449 8.37595 8.66903 8.46875C8.87358 8.56155 9.02888 8.69034 9.13494 8.85511C9.241 9.01799 9.29403 9.20644 9.29403 9.42045C9.29403 9.625 9.23911 9.80492 9.12926 9.96023C9.01941 10.1155 8.8679 10.2367 8.67472 10.3239C8.48153 10.411 8.25994 10.4545 8.00994 10.4545C7.78646 10.4545 7.58286 10.4176 7.39915 10.3438C7.21544 10.2699 7.06676 10.1657 6.95312 10.0312C6.83949 9.89489 6.77509 9.73295 6.75994 9.54545H6.04403C6.05919 9.85038 6.15199 10.1184 6.32244 10.3494C6.49479 10.5786 6.7268 10.7576 7.01847 10.8864Z" fill="#6E6E6E"/>
</svg>
