<svg width="16" height="16" viewBox="0 0 16 16" fill="none" xmlns="http://www.w3.org/2000/svg">
<path d="M15 4L13 3V13L15 12V4Z" fill="#6E6E6E"/>
<path d="M3 3L1 4V12L3 13V3Z" fill="#6E6E6E"/>
<path d="M13 13H3L4 15H12L13 13Z" fill="#6E6E6E"/>
<path d="M12 1H4L3 3H13L12 1Z" fill="#6E6E6E"/>
<path fill-rule="evenodd" clip-rule="evenodd" d="M12 4H4V12H12V4ZM5.8995 9.22727V9.80682H8.63814V11H9.30859V9.80682H10.104V9.18182H9.30859V5.18182H8.87678H8.63814H8.45632L5.8995 9.22727ZM8.63814 6.07955H8.59268L6.66087 9.13636V9.18182H8.63814V6.07955Z" fill="#6E6E6E"/>
</svg>
