<svg width="16" height="16" viewBox="0 0 16 16" fill="none" xmlns="http://www.w3.org/2000/svg">
<path d="M15 4L13 3V13L15 12V4Z" fill="#6E6E6E"/>
<path d="M3 3L1 4V12L3 13V3Z" fill="#6E6E6E"/>
<path d="M13 13H3L4 15H12L13 13Z" fill="#6E6E6E"/>
<path d="M12 1H4L3 3H13L12 1Z" fill="#6E6E6E"/>
<path fill-rule="evenodd" clip-rule="evenodd" d="M12 4H4V12H12V4ZM7.08629 10.8807C7.35334 11.0133 7.65353 11.0795 7.98686 11.0795C8.35618 11.0795 8.68572 10.9962 8.9755 10.8295C9.26527 10.661 9.49254 10.4318 9.65732 10.142C9.82398 9.85038 9.90732 9.51894 9.90732 9.14773C9.90732 8.77083 9.82682 8.43561 9.66584 8.14205C9.50675 7.84848 9.28705 7.61742 9.00675 7.44886C8.72834 7.27841 8.4111 7.19318 8.05504 7.19318C7.85997 7.19318 7.67247 7.22443 7.49254 7.28693C7.31262 7.34943 7.163 7.42803 7.04368 7.52273H7.00959L7.21413 5.80682H9.64595V5.18182H6.62322L6.27095 8.04545L6.93004 8.125C7.05125 8.03788 7.20561 7.96686 7.39311 7.91193C7.58061 7.85511 7.76338 7.82765 7.94141 7.82955C8.18951 7.83144 8.41016 7.89015 8.60334 8.00568C8.79652 8.12121 8.94804 8.27936 9.05788 8.48011C9.16963 8.67898 9.2255 8.9053 9.2255 9.15909C9.2255 9.4072 9.17152 9.62973 9.06357 9.8267C8.9575 10.0218 8.81072 10.1752 8.62322 10.2869C8.43762 10.3987 8.2255 10.4545 7.98686 10.4545C7.68951 10.4545 7.43383 10.3693 7.21982 10.1989C7.00769 10.0265 6.88838 9.80871 6.86186 9.54545H6.18004C6.19519 9.84091 6.28326 10.1042 6.44425 10.3352C6.60523 10.5663 6.81925 10.7481 7.08629 10.8807Z" fill="#6E6E6E"/>
</svg>
