<svg width="16" height="16" viewBox="0 0 16 16" fill="none" xmlns="http://www.w3.org/2000/svg">
<path d="M15 4L13 3V13L15 12V4Z" fill="#6E6E6E"/>
<path d="M3 3L1 4V12L3 13V3Z" fill="#6E6E6E"/>
<path d="M13 13H3L4 15H12L13 13Z" fill="#6E6E6E"/>
<path d="M12 1H4L3 3H13L12 1Z" fill="#6E6E6E"/>
<path fill-rule="evenodd" clip-rule="evenodd" d="M12 4H4V12H12V4ZM7.32209 10.9432C7.56072 11.0303 7.79936 11.0758 8.038 11.0795C8.43004 11.0833 8.77095 10.9981 9.06072 10.8239C9.35239 10.6477 9.57872 10.411 9.7397 10.1136C9.90069 9.81439 9.98118 9.48485 9.98118 9.125C9.98118 8.75 9.89785 8.41761 9.73118 8.12784C9.56451 7.83617 9.34292 7.60795 9.06641 7.44318C8.78989 7.27652 8.48497 7.19318 8.15163 7.19318C7.95277 7.19318 7.76432 7.22443 7.58629 7.28693C7.40826 7.34943 7.24538 7.43845 7.09766 7.55398C6.95182 7.66761 6.82588 7.80492 6.71982 7.96591H6.67436C6.67625 7.25758 6.80599 6.70739 7.06357 6.31534C7.32304 5.9233 7.67815 5.72727 8.12891 5.72727C8.43572 5.72727 8.68194 5.81345 8.86754 5.9858C9.05315 6.15814 9.17815 6.375 9.24254 6.63636H9.93572C9.88838 6.33523 9.78421 6.06913 9.62322 5.83807C9.46224 5.60701 9.25391 5.42708 8.99822 5.2983C8.74444 5.16761 8.45466 5.10227 8.12891 5.10227C7.80125 5.10227 7.50675 5.1733 7.24538 5.31534C6.98591 5.45739 6.76432 5.66572 6.58061 5.94034C6.3969 6.21307 6.25675 6.54924 6.16016 6.94886C6.06357 7.34659 6.01527 7.80303 6.01527 8.31818C6.01527 8.85606 6.07493 9.30303 6.19425 9.65909C6.31357 10.0133 6.47171 10.2945 6.66868 10.5028C6.86565 10.7093 7.08345 10.8561 7.32209 10.9432ZM8.68004 10.2756C8.49065 10.3949 8.27663 10.4545 8.038 10.4545C7.79557 10.4545 7.57872 10.393 7.38743 10.2699C7.19804 10.1468 7.04841 9.98485 6.93857 9.78409C6.83061 9.58333 6.77663 9.36742 6.77663 9.13636C6.77663 8.96212 6.80978 8.7964 6.87607 8.6392C6.94235 8.48011 7.03326 8.33902 7.14879 8.21591C7.26622 8.0928 7.40258 7.99621 7.55788 7.92614C7.71319 7.85417 7.8808 7.81818 8.06072 7.81818C8.29936 7.81818 8.51148 7.87689 8.69709 7.99432C8.88459 8.11174 9.03137 8.26989 9.13743 8.46875C9.24538 8.66572 9.29936 8.88447 9.29936 9.125C9.29936 9.37121 9.24349 9.5947 9.13175 9.79545C9.0219 9.99621 8.87133 10.1562 8.68004 10.2756Z" fill="#6E6E6E"/>
</svg>
