<svg width="16" height="16" viewBox="0 0 16 16" fill="none" xmlns="http://www.w3.org/2000/svg">
<path d="M15 4L13 3V13L15 12V4Z" fill="#6E6E6E"/>
<path d="M3 3L1 4V12L3 13V3Z" fill="#6E6E6E"/>
<path d="M13 13H3L4 15H12L13 13Z" fill="#6E6E6E"/>
<path d="M12 1H4L3 3H13L12 1Z" fill="#6E6E6E"/>
<path fill-rule="evenodd" clip-rule="evenodd" d="M12 4H4V12H12V4ZM6.96697 10.8722C7.26622 11.0104 7.61091 11.0795 8.00107 11.0795C8.38932 11.0795 8.73118 11.0104 9.02663 10.8722C9.32398 10.732 9.55599 10.5398 9.72266 10.2955C9.89122 10.0492 9.97644 9.76894 9.97834 9.45455C9.97644 9.20833 9.92531 8.98106 9.82493 8.77273C9.72455 8.5625 9.59008 8.38731 9.42152 8.24716C9.25296 8.10511 9.06357 8.01515 8.85334 7.97727V7.94318C9.12607 7.87121 9.34482 7.71496 9.50959 7.47443C9.67625 7.23201 9.76054 6.95644 9.76243 6.64773C9.76054 6.35227 9.68288 6.08807 9.52947 5.85511C9.37796 5.62216 9.16963 5.43845 8.90447 5.30398C8.63932 5.16951 8.33819 5.10227 8.00107 5.10227C7.66016 5.10227 7.35618 5.16951 7.08913 5.30398C6.82398 5.43845 6.61565 5.62216 6.46413 5.85511C6.31262 6.08807 6.23781 6.35227 6.2397 6.64773C6.23781 6.95644 6.31925 7.23201 6.48402 7.47443C6.64879 7.71496 6.87038 7.87121 7.14879 7.94318V7.97727C6.93667 8.01515 6.74444 8.10511 6.57209 8.24716C6.40163 8.38731 6.26716 8.5625 6.16868 8.77273C6.07019 8.98106 6.0219 9.20833 6.02379 9.45455C6.0219 9.76894 6.10429 10.0492 6.27095 10.2955C6.43762 10.5398 6.66963 10.732 6.96697 10.8722ZM8.68288 10.3267C8.4916 10.4119 8.26432 10.4545 8.00107 10.4545C7.73591 10.4545 7.50675 10.4119 7.31357 10.3267C7.12038 10.2415 6.97171 10.1212 6.86754 9.96591C6.76527 9.81061 6.71508 9.62879 6.71697 9.42045C6.71508 9.20076 6.76906 9.00663 6.87891 8.83807C6.99065 8.66951 7.14311 8.53693 7.33629 8.44034C7.53137 8.34375 7.75296 8.29545 8.00107 8.29545C8.24728 8.29545 8.46603 8.34375 8.65732 8.44034C8.8505 8.53693 9.00296 8.66951 9.1147 8.83807C9.22644 9.00663 9.28326 9.20076 9.28516 9.42045C9.28326 9.62879 9.23023 9.81061 9.12607 9.96591C9.0219 10.1212 8.87417 10.2415 8.68288 10.3267ZM8.55504 7.56818C8.39406 7.65152 8.2094 7.69318 8.00107 7.69318C7.78894 7.69318 7.60144 7.65152 7.43857 7.56818C7.27569 7.48485 7.14785 7.36837 7.05504 7.21875C6.96413 7.06913 6.91963 6.89394 6.92152 6.69318C6.91963 6.49621 6.96319 6.32481 7.0522 6.17898C7.14122 6.03125 7.26716 5.91761 7.43004 5.83807C7.59292 5.75663 7.78326 5.71591 8.00107 5.71591C8.21508 5.71591 8.40258 5.75663 8.56357 5.83807C8.72455 5.91761 8.8505 6.03125 8.94141 6.17898C9.03232 6.32481 9.07872 6.49621 9.08061 6.69318C9.07872 6.89394 9.03137 7.06913 8.93857 7.21875C8.84576 7.36837 8.71792 7.48485 8.55504 7.56818Z" fill="#6E6E6E"/>
</svg>
