<svg width="16" height="16" viewBox="0 0 16 16" fill="none" xmlns="http://www.w3.org/2000/svg">
<path d="M15 4L13 3V13L15 12V4Z" fill="#6E6E6E"/>
<path d="M3 3L1 4V12L3 13V3Z" fill="#6E6E6E"/>
<path d="M13 13H3L4 15H12L13 13Z" fill="#6E6E6E"/>
<path d="M12 1H4L3 3H13L12 1Z" fill="#6E6E6E"/>
<path fill-rule="evenodd" clip-rule="evenodd" d="M12 4H4V12H12V4ZM8.67436 5.23864C8.43572 5.14962 8.19709 5.10417 7.95845 5.10227C7.56451 5.09659 7.22171 5.18182 6.93004 5.35795C6.64027 5.53409 6.41489 5.77083 6.25391 6.06818C6.09482 6.36364 6.01527 6.68939 6.01527 7.04545C6.01527 7.42045 6.09766 7.75379 6.26243 8.04545C6.4291 8.33523 6.65069 8.56345 6.9272 8.73011C7.20561 8.89489 7.51148 8.97727 7.84482 8.97727C8.04557 8.97727 8.23497 8.94602 8.413 8.88352C8.59103 8.82102 8.75296 8.73201 8.89879 8.61648C9.04463 8.50095 9.17057 8.36364 9.27663 8.20455H9.32209C9.32209 8.92045 9.19141 9.47443 8.93004 9.86648C8.67057 10.2585 8.31641 10.4545 7.86754 10.4545C7.56072 10.4545 7.31357 10.3684 7.12607 10.196C6.94046 10.0218 6.81641 9.80114 6.75391 9.53409H6.06072C6.10618 9.84091 6.2094 10.1108 6.37038 10.3438C6.53326 10.5748 6.7416 10.7557 6.99538 10.8864C7.25107 11.0152 7.54179 11.0795 7.86754 11.0795C8.19519 11.0795 8.48875 11.0085 8.74822 10.8665C9.00959 10.7244 9.23118 10.5161 9.413 10.2415C9.59671 9.96686 9.73686 9.62973 9.83345 9.23011C9.93194 8.8286 9.98118 8.36932 9.98118 7.85227C9.98118 7.31818 9.92152 6.87405 9.8022 6.51989C9.68288 6.16572 9.52474 5.88636 9.32777 5.68182C9.1308 5.47538 8.913 5.32765 8.67436 5.23864ZM7.31357 5.90625C7.50485 5.78693 7.71982 5.72727 7.95845 5.72727C8.20088 5.72727 8.41679 5.78883 8.60618 5.91193C8.79747 6.03504 8.94709 6.19602 9.05504 6.39489C9.16489 6.59375 9.21982 6.80682 9.21982 7.03409C9.21982 7.20644 9.18667 7.37216 9.12038 7.53125C9.0541 7.68845 8.96224 7.82955 8.84482 7.95455C8.72929 8.07765 8.59387 8.17519 8.43857 8.24716C8.28326 8.31723 8.11565 8.35227 7.93572 8.35227C7.69709 8.35227 7.48402 8.29451 7.29652 8.17898C7.11091 8.06155 6.96413 7.90436 6.85618 7.70739C6.75012 7.50852 6.69709 7.28788 6.69709 7.04545C6.69709 6.80303 6.75201 6.58239 6.86186 6.38352C6.9736 6.18276 7.12417 6.02367 7.31357 5.90625Z" fill="#6E6E6E"/>
</svg>
